Coordinates
version=1
nRows=26
nColumns=22
inDegrees=yes

Units are S.I. units (second, meters, Newtons, ...)
If the header above contains a line with 'inDegrees', this indicates whether rotational values are in degrees (yes) or radians (no).

endheader
time	pelvis_tilt	pelvis_list	pelvis_rotation	pelvis_tx	pelvis_ty	pelvis_tz	hip_flexion_r	hip_adduction_r	hip_rotation_r	knee_angle_r	ankle_angle_r	subtalar_angle_r	hip_flexion_l	hip_adduction_l	hip_rotation_l	knee_angle_l	ankle_angle_l	subtalar_angle_l	lumbar_extension	lumbar_bending	lumbar_rotation
      0.01000000	      3.15863295	      7.60138194	    187.19071919	      0.17749508	      0.97382082	      1.07980258	      6.19800575	      7.26231204	     -9.70394234	    -14.56405126	      9.60335019	     -0.45082316	      3.56506018	     -8.64530483	      5.55217722	     -8.76778761	     12.02010726	      0.19227414	      3.72017152	      6.01809685	     -7.95466580
      0.02000000	      3.16517978	      7.60018984	    187.19150263	      0.17747290	      0.97381345	      1.07976106	      6.20078040	      7.26321068	     -9.70521048	    -14.56022988	      9.60392467	     -0.45066704	      3.56814222	     -8.64562870	      5.55051717	     -8.76323602	     12.02017131	      0.19262335	      3.71066152	      6.01911125	     -7.95675397
      0.03000000	      3.17730624	      7.60213272	    187.19884173	      0.17742424	      0.97380014	      1.07971523	      6.20532857	      7.26744732	     -9.71310015	    -14.55107186	      9.60670528	     -0.44989760	      3.57129498	     -8.65064894	      5.53978049	     -8.74550776	     12.01481058	      0.19658152	      3.71033482	      6.02086872	     -7.98162041
      0.04000000	      3.19146486	      7.60692403	    187.20694589	      0.17738530	      0.97378254	      1.07967151	      6.21489741	      7.27311599	     -9.72790202	    -14.54360530	      9.60784417	     -0.44866129	      3.57944140	     -8.65771795	      5.54499223	     -8.73228845	     12.00504543	      0.20478457	      3.70976715	      6.02629915	     -8.00618589
      0.05000000	      3.21268970	      7.61342802	    187.22396617	      0.17735942	      0.97375327	      1.07962301	      6.23728465	      7.27934014	     -9.75072322	    -14.54304810	      9.60648838	     -0.44632612	      3.60336921	     -8.66556240	      5.56688573	     -8.72817194	     12.00065272	      0.21897850	      3.71594100	      6.02670076	     -8.02857338
      0.06000000	      3.22478256	      7.61368227	    187.22877687	      0.17731613	      0.97373758	      1.07957346	      6.24777813	      7.28050105	     -9.75223417	    -14.54328086	      9.60758808	     -0.44599887	      3.60939359	     -8.66907883	      5.56063997	     -8.71723748	     12.00137297	      0.22064120	      3.71061880	      6.02390977	     -8.03898293
      0.07000000	      3.25806434	      7.61705949	    187.23550044	      0.17729060	      0.97369872	      1.07951649	      6.28832052	      7.28154625	     -9.76568267	    -14.55320976	      9.61030697	     -0.44310806	      3.64410494	     -8.67230619	      5.57303089	     -8.71395805	     11.99052767	      0.23127552	      3.72880404	      6.01823603	     -8.04977179
      0.08000000	      3.26607716	      7.61708035	    187.24011384	      0.17724376	      0.97369286	      1.07946476	      6.29404163	      7.28410479	     -9.76552788	    -14.55219307	      9.61017297	     -0.44279461	      3.64824089	     -8.67546892	      5.57048527	     -8.70859347	     11.99172184	      0.23134684	      3.71855083	      6.01244540	     -8.05133217
      0.09000000	      3.27443052	      7.61749214	    187.24329944	      0.17719425	      0.97368850	      1.07941044	      6.30015523	      7.28673098	     -9.76598504	    -14.55132165	      9.60991399	     -0.44244733	      3.65230514	     -8.67960703	      5.56878267	     -8.70337212	     11.99201769	      0.23151375	      3.70879291	      6.00545628	     -8.05226071
      0.10000000	      3.33922698	      7.61777361	    187.24625825	      0.17719474	      0.97361589	      1.07936074	      6.38718533	      7.27653870	     -9.77803926	    -14.58427110	      9.61137018	     -0.43467089	      3.72724109	     -8.67418290	      5.58155558	     -8.70960208	     11.97805815	      0.24139002	      3.76058205	      5.98953145	     -8.05260831
      0.11000000	      3.34685955	      7.61854956	    187.24932189	      0.17714248	      0.97361670	      1.07930636	      6.39195883	      7.28018065	     -9.77873255	    -14.58328985	      9.61100908	     -0.43427935	      3.73116438	     -8.67840896	      5.57990460	     -8.70584287	     11.97942606	      0.24122438	      3.75053796	      5.98082616	     -8.05241152
      0.12000000	      3.37957736	      7.61858078	    187.24692332	      0.17711573	      0.97358910	      1.07925356	      6.43519383	      7.27557533	     -9.79084255	    -14.60121992	      9.59884139	     -0.42957815	      3.76332128	     -8.67798707	      5.58078600	     -8.70314759	     11.98050757	      0.24230455	      3.76656286	      5.96802230	     -8.03263081
      0.13000000	      3.41238358	      7.61740141	    187.24957218	      0.17709994	      0.97355789	      1.07920224	      6.47008069	      7.27354504	     -9.77954207	    -14.60482095	      9.61117079	     -0.42762892	      3.80836080	     -8.67483876	      5.58077936	     -8.72025889	     11.96978924	      0.24423593	      3.78209680	      5.95278119	     -8.03231805
      0.14000000	      3.42915351	      7.61819983	    187.24907786	      0.17706003	      0.97354894	      1.07915498	      6.48900380	      7.27317194	     -9.79059242	    -14.61118563	      9.59905566	     -0.42488053	      3.81969575	     -8.67724941	      5.58019101	     -8.71134379	     11.97674365	      0.24470366	      3.78230504	      5.94310702	     -8.01680444
      0.15000000	      3.43659275	      7.61947335	    187.24911515	      0.17702095	      0.97354894	      1.07911470	      6.49301383	      7.27632862	     -9.79127372	    -14.60835964	      9.59912415	     -0.42460641	      3.82412804	     -8.68001252	      5.57953406	     -8.70854981	     11.97649259	      0.24480207	      3.77187540	      5.93551025	     -8.01593330
      0.16000000	      3.44428097	      7.62055327	    187.24906957	      0.17698323	      0.97354713	      1.07907462	      6.49705582	      7.27911872	     -9.79198692	    -14.60518851	      9.59858913	     -0.42418754	      3.82920306	     -8.68285921	      5.57878499	     -8.70583353	     11.97586007	      0.24503361	      3.76263787	      5.92749787	     -8.01381285
      0.17000000	      3.50103075	      7.61525863	    187.22935653	      0.17698089	      0.97349419	      1.07901892	      6.56064079	      7.26953580	     -9.76390787	    -14.61402095	      9.57956152	     -0.41333064	      3.89261395	     -8.67126110	      5.56121667	     -8.71778334	     11.95564540	      0.25883628	      3.80587035	      5.90706888	     -7.98901852
      0.18000000	      3.50743453	      7.61654438	    187.22559002	      0.17694414	      0.97349284	      1.07898623	      6.56302636	      7.27237310	     -9.76593094	    -14.61016471	      9.58075155	     -0.41310921	      3.89611872	     -8.67340804	      5.56113145	     -8.71648578	     11.95612763	      0.25904937	      3.79693793	      5.90077691	     -7.98956201
      0.19000000	      3.51377616	      7.61772882	    187.22062324	      0.17690656	      0.97349088	      1.07895374	      6.56521889	      7.27529826	     -9.76707857	    -14.60581569	      9.58148696	     -0.41278637	      3.89967603	     -8.67540031	      5.56059075	     -8.71618045	     11.95592078	      0.25945307	      3.78927611	      5.89389305	     -7.99122296
      0.20000000	      3.52013965	      7.61873932	    187.21374344	      0.17687098	      0.97348927	      1.07892075	      6.56733513	      7.27833452	     -9.76702927	    -14.60078275	      9.58193409	     -0.41242060	      3.90358793	     -8.67714629	      5.55945849	     -8.71707487	     11.95498493	      0.26006547	      3.78224508	      5.88668573	     -7.99494303
      0.21000000	      3.55464263	      7.61924403	    187.19627732	      0.17685803	      0.97345882	      1.07888223	      6.59186709	      7.28123887	     -9.72342569	    -14.58122571	      9.57525874	     -0.40695787	      3.95734884	     -8.67314261	      5.52789235	     -8.75372839	     11.94803032	      0.28171030	      3.80671112	      5.87757200	     -8.00490699
      0.22000000	      3.55944513	      7.62054092	    187.18730327	      0.17682690	      0.97346015	      1.07885141	      6.59469627	      7.28429159	     -9.72387615	    -14.57958969	      9.57563931	     -0.40689193	      3.95882711	     -8.67555540	      5.52749941	     -8.75382773	     11.94807217	      0.28220567	      3.79901521	      5.87139738	     -8.01158522
      0.23000000	      3.56447568	      7.62168635	    187.17681542	      0.17680624	      0.97346006	      1.07882905	      6.60061675	      7.28761494	     -9.70370098	    -14.58372321	      9.57508847	     -0.40783032	      3.96708653	     -8.67687343	      5.50994431	     -8.76359348	     11.94674287	      0.28588657	      3.79191244	      5.86912900	     -8.05062008
      0.24000000	      3.56878546	      7.62270039	    187.16504332	      0.17677835	      0.97346438	      1.07880412	      6.60249014	      7.28983870	     -9.70392594	    -14.58095032	      9.57523105	     -0.40790099	      3.96882826	     -8.67866744	      5.50985649	     -8.76628374	     11.94675123	      0.28629454	      3.78496196	      5.86494399	     -8.05725498
      0.25000000	      3.57069551	      7.62390739	    187.15101687	      0.17676515	      0.97347033	      1.07879402	      6.60675561	      7.29227652	     -9.67999072	    -14.58755079	      9.57135573	     -0.40890769	      3.97691491	     -8.67929859	      5.49087836	     -8.78316709	     11.94793199	      0.28782701	      3.77540927	      5.86773710	     -8.09797124
      0.26000000	      3.57454698	      7.62472942	    187.13945656	      0.17675314	      0.97347507	      1.07876864	      6.60954088	      7.29424839	     -9.67945657	    -14.58495697	      9.57120801	     -0.40895552	      3.97966192	     -8.68113083	      5.48984821	     -8.78553183	     11.94842258	      0.28803323	      3.76673441	      5.86462435	     -8.10543984
